<?xml version="1.0" encoding="UTF-8" standalone="no"?>
<!DOCTYPE svg PUBLIC "-//W3C//DTD SVG 1.1//EN"
 "http://www.w3.org/Graphics/SVG/1.1/DTD/svg11.dtd">
<!-- Generated by graphviz version 2.43.0 (0)
 -->
<!-- Title: rel Pages: 1 -->
<svg width="4021pt" height="1752pt"
 viewBox="0.00 0.00 1703.00 742.00" xmlns="http://www.w3.org/2000/svg" xmlns:xlink="http://www.w3.org/1999/xlink">
<g id="graph0" class="graph" transform="scale(2.36 2.36) rotate(0) translate(4 738)">
<title>rel</title>
<polygon fill="white" stroke="transparent" points="-4,4 -4,-738 1699,-738 1699,4 -4,4"/>
<!-- Users -->
<g id="node1" class="node">
<title>Users</title>
<text text-anchor="start" x="271" y="-721" font-family="Helvetica,sans-Serif" font-weight="bold" font-size="10.00">Users</text>
<polygon fill="none" stroke="black" points="269,-692 269,-715 320,-715 320,-692 269,-692"/>
<text text-anchor="start" x="275" y="-702" font-family="Helvetica,sans-Serif" font-weight="bold" text-decoration="underline" font-size="10.00">UserID</text>
<polygon fill="none" stroke="black" points="320,-692 320,-715 360,-715 360,-692 320,-692"/>
<text text-anchor="start" x="326" y="-701" font-family="Helvetica,sans-Serif" font-size="10.00">Email</text>
<polygon fill="none" stroke="black" points="360,-692 360,-715 439,-715 439,-692 360,-692"/>
<text text-anchor="start" x="366" y="-701" font-family="Helvetica,sans-Serif" font-size="10.00">DisplayName</text>
<polygon fill="none" stroke="black" points="439,-692 439,-715 522,-715 522,-692 439,-692"/>
<text text-anchor="start" x="445" y="-701" font-family="Helvetica,sans-Serif" font-size="10.00">PasswordHash</text>
<polygon fill="none" stroke="black" points="522,-692 522,-715 583,-715 583,-692 522,-692"/>
<text text-anchor="start" x="528" y="-701" font-family="Helvetica,sans-Serif" font-size="10.00">CreatedAt</text>
</g>
<!-- UserRoles -->
<g id="node3" class="node">
<title>UserRoles</title>
<text text-anchor="start" x="347" y="-635" font-family="Helvetica,sans-Serif" font-weight="bold" font-size="10.00">UserRoles</text>
<polygon fill="none" stroke="black" stroke-dasharray="5,2" points="345,-606 345,-629 396,-629 396,-606 345,-606"/>
<text text-anchor="start" x="351" y="-616" font-family="Helvetica,sans-Serif" font-weight="bold" font-style="italic" text-decoration="underline" font-size="10.00">UserID</text>
<polygon fill="none" stroke="black" stroke-dasharray="5,2" points="396,-606 396,-629 445,-629 445,-606 396,-606"/>
<text text-anchor="start" x="402" y="-616" font-family="Helvetica,sans-Serif" font-weight="bold" font-style="italic" text-decoration="underline" font-size="10.00">RoleID</text>
<polygon fill="none" stroke="black" points="445,-606 445,-629 507,-629 507,-606 445,-606"/>
<text text-anchor="start" x="451" y="-615" font-family="Helvetica,sans-Serif" font-size="10.00">GrantedAt</text>
</g>
<!-- Users&#45;&gt;UserRoles -->
<!-- Roles -->
<g id="node2" class="node">
<title>Roles</title>
<text text-anchor="start" x="1221" y="-721" font-family="Helvetica,sans-Serif" font-weight="bold" font-size="10.00">Roles</text>
<polygon fill="none" stroke="black" points="1219,-692 1219,-715 1268,-715 1268,-692 1219,-692"/>
<text text-anchor="start" x="1225" y="-702" font-family="Helvetica,sans-Serif" font-weight="bold" text-decoration="underline" font-size="10.00">RoleID</text>
<polygon fill="none" stroke="black" points="1268,-692 1268,-715 1332,-715 1332,-692 1268,-692"/>
<text text-anchor="start" x="1274" y="-701" font-family="Helvetica,sans-Serif" font-size="10.00">RoleName</text>
</g>
<!-- CreatorProfiles -->
<g id="node4" class="node">
<title>CreatorProfiles</title>
<text text-anchor="start" x="1153" y="-635" font-family="Helvetica,sans-Serif" font-weight="bold" font-size="10.00">CreatorProfiles</text>
<polygon fill="none" stroke="black" stroke-dasharray="5,2" points="1151,-606 1151,-629 1202,-629 1202,-606 1151,-606"/>
<text text-anchor="start" x="1157" y="-616" font-family="Helvetica,sans-Serif" font-weight="bold" font-style="italic" text-decoration="underline" font-size="10.00">UserID</text>
<polygon fill="none" stroke="black" points="1202,-606 1202,-629 1249,-629 1249,-606 1202,-606"/>
<text text-anchor="start" x="1208" y="-615" font-family="Helvetica,sans-Serif" font-size="10.00">Handle</text>
<polygon fill="none" stroke="black" points="1249,-606 1249,-629 1277,-629 1277,-606 1249,-606"/>
<text text-anchor="start" x="1255" y="-615" font-family="Helvetica,sans-Serif" font-size="10.00">Bio</text>
<polygon fill="none" stroke="black" points="1277,-606 1277,-629 1341,-629 1341,-606 1277,-606"/>
<text text-anchor="start" x="1283" y="-615" font-family="Helvetica,sans-Serif" font-size="10.00">AvatarURL</text>
<polygon fill="none" stroke="black" points="1341,-606 1341,-629 1399,-629 1399,-606 1341,-606"/>
<text text-anchor="start" x="1347" y="-615" font-family="Helvetica,sans-Serif" font-size="10.00">IsVerified</text>
</g>
<!-- Roles&#45;&gt;CreatorProfiles -->
<!-- UserRoles&#45;&gt;Users -->
<g id="edge1" class="edge">
<title>UserRoles:n&#45;&gt;Users:s</title>
<path fill="none" stroke="#333333" d="M370,-630C370,-630 318.86,-671.05 300.48,-685.8"/>
<polygon fill="#333333" stroke="#333333" points="298.49,-683.81 294,-691 301.99,-688.18 298.49,-683.81"/>
</g>
<!-- UserRoles&#45;&gt;Roles -->
<g id="edge2" class="edge">
<title>UserRoles:n&#45;&gt;Roles:s</title>
<path fill="none" stroke="#333333" d="M420,-630C420,-630 1149.38,-684.06 1234.85,-690.4"/>
<polygon fill="#333333" stroke="#333333" points="1234.81,-693.2 1243,-691 1235.23,-687.62 1234.81,-693.2"/>
</g>
<!-- Recipes -->
<g id="node5" class="node">
<title>Recipes</title>
<text text-anchor="start" x="10" y="-549" font-family="Helvetica,sans-Serif" font-weight="bold" font-size="10.00">Recipes</text>
<polygon fill="none" stroke="black" points="8,-520 8,-543 71,-543 71,-520 8,-520"/>
<text text-anchor="start" x="14" y="-530" font-family="Helvetica,sans-Serif" font-weight="bold" text-decoration="underline" font-size="10.00">RecipeID</text>
<polygon fill="none" stroke="black" points="71,-520 71,-543 105,-543 105,-520 71,-520"/>
<text text-anchor="start" x="77" y="-529" font-family="Helvetica,sans-Serif" font-size="10.00">Title</text>
<polygon fill="none" stroke="black" points="105,-520 105,-543 173,-543 173,-520 105,-520"/>
<text text-anchor="start" x="111" y="-529" font-family="Helvetica,sans-Serif" font-size="10.00">Description</text>
<polygon fill="none" stroke="black" points="173,-520 173,-543 233,-543 233,-520 173,-520"/>
<text text-anchor="start" x="179" y="-529" font-family="Helvetica,sans-Serif" font-size="10.00">VideoURL</text>
<polygon fill="none" stroke="black" points="233,-520 233,-543 317,-543 317,-520 233,-520"/>
<text text-anchor="start" x="239" y="-529" font-family="Helvetica,sans-Serif" font-size="10.00">ThumbnailURL</text>
<polygon fill="none" stroke="black" points="317,-520 317,-543 372,-543 372,-520 317,-520"/>
<text text-anchor="start" x="323" y="-529" font-family="Helvetica,sans-Serif" font-size="10.00">Servings</text>
<polygon fill="none" stroke="black" points="372,-520 372,-543 445,-543 445,-520 372,-520"/>
<text text-anchor="start" x="378" y="-529" font-family="Helvetica,sans-Serif" font-size="10.00">PrepMinutes</text>
<polygon fill="none" stroke="black" points="445,-520 445,-543 521,-543 521,-520 445,-520"/>
<text text-anchor="start" x="451" y="-529" font-family="Helvetica,sans-Serif" font-size="10.00">CookMinutes</text>
<polygon fill="none" stroke="black" points="521,-520 521,-543 589,-543 589,-520 521,-520"/>
<text text-anchor="start" x="527" y="-529" font-family="Helvetica,sans-Serif" font-size="10.00">IsPublished</text>
<polygon fill="none" stroke="black" points="589,-520 589,-543 650,-543 650,-520 589,-520"/>
<text text-anchor="start" x="595" y="-529" font-family="Helvetica,sans-Serif" font-size="10.00">CreatedAt</text>
<polygon fill="none" stroke="black" points="650,-520 650,-543 720,-543 720,-520 650,-520"/>
<text text-anchor="start" x="656" y="-529" font-family="Helvetica,sans-Serif" font-size="10.00">PublishedAt</text>
<polygon fill="none" stroke="black" points="720,-520 720,-543 785,-543 785,-520 720,-520"/>
<text text-anchor="start" x="726" y="-529" font-family="Helvetica,sans-Serif" font-size="10.00">SaveCount</text>
<polygon fill="none" stroke="black" stroke-dasharray="5,2" points="785,-520 785,-543 844,-543 844,-520 785,-520"/>
<text text-anchor="start" x="791" y="-530" font-family="Helvetica,sans-Serif" font-style="italic" text-decoration="underline" font-size="10.00">CreatorID</text>
</g>
<!-- UserRoles&#45;&gt;Recipes -->
<!-- CreatorProfiles&#45;&gt;Users -->
<g id="edge3" class="edge">
<title>CreatorProfiles:n&#45;&gt;Users:s</title>
<path fill="none" stroke="#333333" d="M1176,-630C1176,-630 391.08,-684.29 302.17,-690.44"/>
<polygon fill="#333333" stroke="#333333" points="301.79,-687.65 294,-691 302.17,-693.24 301.79,-687.65"/>
</g>
<!-- Units -->
<g id="node7" class="node">
<title>Units</title>
<text text-anchor="start" x="1092" y="-549" font-family="Helvetica,sans-Serif" font-weight="bold" font-size="10.00">Units</text>
<polygon fill="none" stroke="black" points="1090,-520 1090,-543 1138,-543 1138,-520 1090,-520"/>
<text text-anchor="start" x="1096" y="-530" font-family="Helvetica,sans-Serif" font-weight="bold" text-decoration="underline" font-size="10.00">UnitID</text>
<polygon fill="none" stroke="black" points="1138,-520 1138,-543 1200,-543 1200,-520 1138,-520"/>
<text text-anchor="start" x="1144" y="-529" font-family="Helvetica,sans-Serif" font-size="10.00">UnitName</text>
<polygon fill="none" stroke="black" points="1200,-520 1200,-543 1275,-543 1275,-520 1200,-520"/>
<text text-anchor="start" x="1206" y="-529" font-family="Helvetica,sans-Serif" font-size="10.00">Abbreviation</text>
<polygon fill="none" stroke="black" points="1275,-520 1275,-543 1332,-543 1332,-520 1275,-520"/>
<text text-anchor="start" x="1281" y="-529" font-family="Helvetica,sans-Serif" font-size="10.00">Category</text>
<polygon fill="none" stroke="black" points="1332,-520 1332,-543 1408,-543 1408,-520 1332,-520"/>
<text text-anchor="start" x="1338" y="-529" font-family="Helvetica,sans-Serif" font-size="10.00">ToBaseFactor</text>
<polygon fill="none" stroke="black" points="1408,-520 1408,-543 1460,-543 1460,-520 1408,-520"/>
<text text-anchor="start" x="1414" y="-529" font-family="Helvetica,sans-Serif" font-size="10.00">IsMetric</text>
</g>
<!-- CreatorProfiles&#45;&gt;Units -->
<!-- Recipes&#45;&gt;CreatorProfiles -->
<g id="edge4" class="edge">
<title>Recipes:n&#45;&gt;CreatorProfiles:s</title>
<path fill="none" stroke="#333333" d="M815,-544C815,-544 1114.05,-594.53 1167.78,-603.61"/>
<polygon fill="#333333" stroke="#333333" points="1167.65,-606.43 1176,-605 1168.58,-600.91 1167.65,-606.43"/>
</g>
<!-- RecipeSteps -->
<g id="node6" class="node">
<title>RecipeSteps</title>
<text text-anchor="start" x="211" y="-463" font-family="Helvetica,sans-Serif" font-weight="bold" font-size="10.00">RecipeSteps</text>
<polygon fill="none" stroke="black" points="209,-434 209,-457 260,-457 260,-434 209,-434"/>
<text text-anchor="start" x="215" y="-444" font-family="Helvetica,sans-Serif" font-weight="bold" text-decoration="underline" font-size="10.00">StepID</text>
<polygon fill="none" stroke="black" points="260,-434 260,-457 333,-457 333,-434 260,-434"/>
<text text-anchor="start" x="266" y="-443" font-family="Helvetica,sans-Serif" font-size="10.00">StepNumber</text>
<polygon fill="none" stroke="black" points="333,-434 333,-457 397,-457 397,-434 333,-434"/>
<text text-anchor="start" x="339" y="-443" font-family="Helvetica,sans-Serif" font-size="10.00">Instruction</text>
<polygon fill="none" stroke="black" points="397,-434 397,-457 493,-457 493,-434 397,-434"/>
<text text-anchor="start" x="403" y="-443" font-family="Helvetica,sans-Serif" font-size="10.00">VideoTimestamp</text>
<polygon fill="none" stroke="black" points="493,-434 493,-457 587,-457 587,-434 493,-434"/>
<text text-anchor="start" x="499" y="-443" font-family="Helvetica,sans-Serif" font-size="10.00">DurationMinutes</text>
<polygon fill="none" stroke="black" stroke-dasharray="5,2" points="587,-434 587,-457 643,-457 643,-434 587,-434"/>
<text text-anchor="start" x="593" y="-444" font-family="Helvetica,sans-Serif" font-style="italic" text-decoration="underline" font-size="10.00">RecipeID</text>
</g>
<!-- Recipes&#45;&gt;RecipeSteps -->
<!-- RecipeSteps&#45;&gt;Recipes -->
<g id="edge5" class="edge">
<title>RecipeSteps:n&#45;&gt;Recipes:s</title>
<path fill="none" stroke="#333333" d="M615,-458C615,-458 117.15,-510.72 47.14,-518.14"/>
<polygon fill="#333333" stroke="#333333" points="46.66,-515.37 39,-519 47.25,-520.94 46.66,-515.37"/>
</g>
<!-- RecipeIngredients -->
<g id="node9" class="node">
<title>RecipeIngredients</title>
<text text-anchor="start" x="124" y="-377" font-family="Helvetica,sans-Serif" font-weight="bold" font-size="10.00">RecipeIngredients</text>
<polygon fill="none" stroke="black" points="122,-348 122,-371 244,-371 244,-348 122,-348"/>
<text text-anchor="start" x="128" y="-358" font-family="Helvetica,sans-Serif" font-weight="bold" text-decoration="underline" font-size="10.00">RecipeIngredientID</text>
<polygon fill="none" stroke="black" points="244,-348 244,-371 299,-371 299,-348 244,-348"/>
<text text-anchor="start" x="250" y="-357" font-family="Helvetica,sans-Serif" font-size="10.00">Quantity</text>
<polygon fill="none" stroke="black" points="299,-348 299,-371 369,-371 369,-348 299,-348"/>
<text text-anchor="start" x="305" y="-357" font-family="Helvetica,sans-Serif" font-size="10.00">DisplayText</text>
<polygon fill="none" stroke="black" points="369,-348 369,-371 438,-371 438,-348 369,-348"/>
<text text-anchor="start" x="375" y="-357" font-family="Helvetica,sans-Serif" font-size="10.00">Preparation</text>
<polygon fill="none" stroke="black" points="438,-348 438,-371 497,-371 497,-348 438,-348"/>
<text text-anchor="start" x="444" y="-357" font-family="Helvetica,sans-Serif" font-size="10.00">SortOrder</text>
<polygon fill="none" stroke="black" points="497,-348 497,-371 559,-371 559,-348 497,-348"/>
<text text-anchor="start" x="503" y="-357" font-family="Helvetica,sans-Serif" font-size="10.00">IsOptional</text>
<polygon fill="none" stroke="black" stroke-dasharray="5,2" points="559,-348 559,-371 615,-371 615,-348 559,-348"/>
<text text-anchor="start" x="565" y="-358" font-family="Helvetica,sans-Serif" font-style="italic" text-decoration="underline" font-size="10.00">RecipeID</text>
<polygon fill="none" stroke="black" stroke-dasharray="5,2" points="615,-348 615,-371 688,-371 688,-348 615,-348"/>
<text text-anchor="start" x="621" y="-358" font-family="Helvetica,sans-Serif" font-style="italic" text-decoration="underline" font-size="10.00">IngredientID</text>
<polygon fill="none" stroke="black" stroke-dasharray="5,2" points="688,-348 688,-371 731,-371 731,-348 688,-348"/>
<text text-anchor="start" x="694" y="-358" font-family="Helvetica,sans-Serif" font-style="italic" text-decoration="underline" font-size="10.00">UnitID</text>
</g>
<!-- RecipeSteps&#45;&gt;RecipeIngredients -->
<!-- Ingredients -->
<g id="node8" class="node">
<title>Ingredients</title>
<text text-anchor="start" x="1052" y="-463" font-family="Helvetica,sans-Serif" font-weight="bold" font-size="10.00">Ingredients</text>
<polygon fill="none" stroke="black" points="1050,-434 1050,-457 1134,-457 1134,-434 1050,-434"/>
<text text-anchor="start" x="1056" y="-444" font-family="Helvetica,sans-Serif" font-weight="bold" text-decoration="underline" font-size="10.00">IngredientID</text>
<polygon fill="none" stroke="black" points="1134,-434 1134,-457 1225,-457 1225,-434 1134,-434"/>
<text text-anchor="start" x="1140" y="-443" font-family="Helvetica,sans-Serif" font-size="10.00">IngredientName</text>
<polygon fill="none" stroke="black" points="1225,-434 1225,-457 1282,-457 1282,-434 1225,-434"/>
<text text-anchor="start" x="1231" y="-443" font-family="Helvetica,sans-Serif" font-size="10.00">Category</text>
<polygon fill="none" stroke="black" points="1282,-434 1282,-457 1367,-457 1367,-434 1282,-434"/>
<text text-anchor="start" x="1288" y="-443" font-family="Helvetica,sans-Serif" font-size="10.00">DensityGPerMl</text>
<polygon fill="none" stroke="black" stroke-dasharray="5,2" points="1367,-434 1367,-457 1500,-457 1500,-434 1367,-434"/>
<text text-anchor="start" x="1373" y="-444" font-family="Helvetica,sans-Serif" font-style="italic" text-decoration="underline" font-size="10.00">PreferredShoppingUnitID</text>
</g>
<!-- Units&#45;&gt;Ingredients -->
<!-- Ingredients&#45;&gt;Units -->
<g id="edge6" class="edge">
<title>Ingredients:n&#45;&gt;Units:s</title>
<path fill="none" stroke="#333333" d="M1434,-458C1434,-458 1171.19,-508.1 1121.91,-517.49"/>
<polygon fill="#333333" stroke="#333333" points="1121.33,-514.75 1114,-519 1122.38,-520.25 1121.33,-514.75"/>
</g>
<!-- SavedRecipes -->
<g id="node10" class="node">
<title>SavedRecipes</title>
<text text-anchor="start" x="1194" y="-377" font-family="Helvetica,sans-Serif" font-weight="bold" font-size="10.00">SavedRecipes</text>
<polygon fill="none" stroke="black" stroke-dasharray="5,2" points="1192,-348 1192,-371 1243,-371 1243,-348 1192,-348"/>
<text text-anchor="start" x="1198" y="-358" font-family="Helvetica,sans-Serif" font-weight="bold" font-style="italic" text-decoration="underline" font-size="10.00">UserID</text>
<polygon fill="none" stroke="black" stroke-dasharray="5,2" points="1243,-348 1243,-371 1306,-371 1306,-348 1243,-348"/>
<text text-anchor="start" x="1249" y="-358" font-family="Helvetica,sans-Serif" font-weight="bold" font-style="italic" text-decoration="underline" font-size="10.00">RecipeID</text>
<polygon fill="none" stroke="black" points="1306,-348 1306,-371 1359,-371 1359,-348 1306,-348"/>
<text text-anchor="start" x="1312" y="-357" font-family="Helvetica,sans-Serif" font-size="10.00">SavedAt</text>
</g>
<!-- Ingredients&#45;&gt;SavedRecipes -->
<!-- RecipeIngredients&#45;&gt;Recipes -->
<g id="edge7" class="edge">
<title>RecipeIngredients:n&#45;&gt;Recipes:s</title>
<path fill="none" stroke="#333333" d="M587,-372C587,-372 672,-430 672,-430 672,-430 672,-476 672,-476 672,-476 120.28,-513.48 47,-518.46"/>
<polygon fill="#333333" stroke="#333333" points="46.79,-515.66 39,-519 47.17,-521.25 46.79,-515.66"/>
</g>
<!-- RecipeIngredients&#45;&gt;Units -->
<g id="edge9" class="edge">
<title>RecipeIngredients:n&#45;&gt;Units:s</title>
<path fill="none" stroke="#333333" d="M710,-372C710,-372 1529,-430 1529,-430 1529,-430 1529,-476 1529,-476 1529,-476 1180.78,-512.08 1122.29,-518.14"/>
<polygon fill="#333333" stroke="#333333" points="1121.67,-515.39 1114,-519 1122.25,-520.96 1121.67,-515.39"/>
</g>
<!-- RecipeIngredients&#45;&gt;Ingredients -->
<g id="edge8" class="edge">
<title>RecipeIngredients:n&#45;&gt;Ingredients:s</title>
<path fill="none" stroke="#333333" d="M652,-372C652,-372 1024.35,-423.62 1083.99,-431.89"/>
<polygon fill="#333333" stroke="#333333" points="1083.69,-434.67 1092,-433 1084.46,-429.13 1083.69,-434.67"/>
</g>
<!-- MealPlans -->
<g id="node11" class="node">
<title>MealPlans</title>
<text text-anchor="start" x="274" y="-291" font-family="Helvetica,sans-Serif" font-weight="bold" font-size="10.00">MealPlans</text>
<polygon fill="none" stroke="black" points="272,-262 272,-285 348,-285 348,-262 272,-262"/>
<text text-anchor="start" x="278" y="-272" font-family="Helvetica,sans-Serif" font-weight="bold" text-decoration="underline" font-size="10.00">MealPlanID</text>
<polygon fill="none" stroke="black" points="348,-262 348,-285 411,-285 411,-262 348,-262"/>
<text text-anchor="start" x="354" y="-271" font-family="Helvetica,sans-Serif" font-size="10.00">PlanName</text>
<polygon fill="none" stroke="black" points="411,-262 411,-285 474,-285 474,-262 411,-262"/>
<text text-anchor="start" x="417" y="-271" font-family="Helvetica,sans-Serif" font-size="10.00">WeekStart</text>
<polygon fill="none" stroke="black" points="474,-262 474,-285 535,-285 535,-262 474,-262"/>
<text text-anchor="start" x="480" y="-271" font-family="Helvetica,sans-Serif" font-size="10.00">CreatedAt</text>
<polygon fill="none" stroke="black" stroke-dasharray="5,2" points="535,-262 535,-285 581,-285 581,-262 535,-262"/>
<text text-anchor="start" x="541" y="-272" font-family="Helvetica,sans-Serif" font-style="italic" text-decoration="underline" font-size="10.00">UserID</text>
</g>
<!-- RecipeIngredients&#45;&gt;MealPlans -->
<!-- SavedRecipes&#45;&gt;Users -->
<g id="edge10" class="edge">
<title>SavedRecipes:n&#45;&gt;Users:s</title>
<path fill="none" stroke="#333333" d="M1217,-372C1217,-372 1561,-430 1561,-430 1561,-430 1561,-476 1561,-476 1561,-476 1428,-648 1428,-648 1428,-648 404.14,-686.82 302.16,-690.69"/>
<polygon fill="#333333" stroke="#333333" points="301.89,-687.9 294,-691 302.1,-693.49 301.89,-687.9"/>
</g>
<!-- SavedRecipes&#45;&gt;Recipes -->
<g id="edge11" class="edge">
<title>SavedRecipes:n&#45;&gt;Recipes:s</title>
<path fill="none" stroke="#333333" d="M1274,-372C1274,-372 858,-430 858,-430 858,-430 704,-476 704,-476 704,-476 124.39,-513.48 47.41,-518.46"/>
<polygon fill="#333333" stroke="#333333" points="46.8,-515.69 39,-519 47.16,-521.28 46.8,-515.69"/>
</g>
<!-- Products -->
<g id="node13" class="node">
<title>Products</title>
<text text-anchor="start" x="983" y="-291" font-family="Helvetica,sans-Serif" font-weight="bold" font-size="10.00">Products</text>
<polygon fill="none" stroke="black" points="981,-262 981,-285 1050,-285 1050,-262 981,-262"/>
<text text-anchor="start" x="987" y="-272" font-family="Helvetica,sans-Serif" font-weight="bold" text-decoration="underline" font-size="10.00">ProductID</text>
<polygon fill="none" stroke="black" points="1050,-262 1050,-285 1085,-285 1085,-262 1050,-262"/>
<text text-anchor="start" x="1056" y="-271" font-family="Helvetica,sans-Serif" font-size="10.00">Type</text>
<polygon fill="none" stroke="black" points="1085,-262 1085,-285 1119,-285 1119,-262 1085,-262"/>
<text text-anchor="start" x="1091" y="-271" font-family="Helvetica,sans-Serif" font-size="10.00">Title</text>
<polygon fill="none" stroke="black" points="1119,-262 1119,-285 1187,-285 1187,-262 1119,-262"/>
<text text-anchor="start" x="1125" y="-271" font-family="Helvetica,sans-Serif" font-size="10.00">Description</text>
<polygon fill="none" stroke="black" points="1187,-262 1187,-285 1278,-285 1278,-262 1187,-262"/>
<text text-anchor="start" x="1193" y="-271" font-family="Helvetica,sans-Serif" font-size="10.00">CoverImageURL</text>
<polygon fill="none" stroke="black" points="1278,-262 1278,-285 1342,-285 1342,-262 1278,-262"/>
<text text-anchor="start" x="1284" y="-271" font-family="Helvetica,sans-Serif" font-size="10.00">PriceCents</text>
<polygon fill="none" stroke="black" points="1342,-262 1342,-285 1398,-285 1398,-262 1342,-262"/>
<text text-anchor="start" x="1348" y="-271" font-family="Helvetica,sans-Serif" font-size="10.00">Currency</text>
<polygon fill="none" stroke="black" points="1398,-262 1398,-285 1450,-285 1450,-262 1398,-262"/>
<text text-anchor="start" x="1404" y="-271" font-family="Helvetica,sans-Serif" font-size="10.00">IsActive</text>
<polygon fill="none" stroke="black" points="1450,-262 1450,-285 1511,-285 1511,-262 1450,-262"/>
<text text-anchor="start" x="1456" y="-271" font-family="Helvetica,sans-Serif" font-size="10.00">CreatedAt</text>
<polygon fill="none" stroke="black" stroke-dasharray="5,2" points="1511,-262 1511,-285 1570,-285 1570,-262 1511,-262"/>
<text text-anchor="start" x="1517" y="-272" font-family="Helvetica,sans-Serif" font-style="italic" text-decoration="underline" font-size="10.00">CreatorID</text>
</g>
<!-- SavedRecipes&#45;&gt;Products -->
<!-- MealPlans&#45;&gt;Users -->
<g id="edge12" class="edge">
<title>MealPlans:n&#45;&gt;Users:s</title>
<path fill="none" stroke="#333333" d="M558,-286C558,-286 1388,-344 1388,-344 1388,-344 1593,-430 1593,-430 1593,-430 1593,-476 1593,-476 1593,-476 1544,-562 1544,-562 1544,-562 1478,-648 1478,-648 1478,-648 406.8,-686.9 302.19,-690.7"/>
<polygon fill="#333333" stroke="#333333" points="301.89,-687.91 294,-691 302.1,-693.51 301.89,-687.91"/>
</g>
<!-- MealPlanEntries -->
<g id="node12" class="node">
<title>MealPlanEntries</title>
<text text-anchor="start" x="237" y="-205" font-family="Helvetica,sans-Serif" font-weight="bold" font-size="10.00">MealPlanEntries</text>
<polygon fill="none" stroke="black" points="235,-176 235,-199 290,-199 290,-176 235,-176"/>
<text text-anchor="start" x="241" y="-186" font-family="Helvetica,sans-Serif" font-weight="bold" text-decoration="underline" font-size="10.00">EntryID</text>
<polygon fill="none" stroke="black" points="290,-176 290,-199 365,-199 365,-176 290,-176"/>
<text text-anchor="start" x="296" y="-185" font-family="Helvetica,sans-Serif" font-size="10.00">PlannedDate</text>
<polygon fill="none" stroke="black" points="365,-176 365,-199 396,-199 396,-176 365,-176"/>
<text text-anchor="start" x="371" y="-185" font-family="Helvetica,sans-Serif" font-size="10.00">Slot</text>
<polygon fill="none" stroke="black" points="396,-176 396,-199 493,-199 493,-176 396,-176"/>
<text text-anchor="start" x="402" y="-185" font-family="Helvetica,sans-Serif" font-size="10.00">ServingsOverride</text>
<polygon fill="none" stroke="black" stroke-dasharray="5,2" points="493,-176 493,-199 561,-199 561,-176 493,-176"/>
<text text-anchor="start" x="499" y="-186" font-family="Helvetica,sans-Serif" font-style="italic" text-decoration="underline" font-size="10.00">MealPlanID</text>
<polygon fill="none" stroke="black" stroke-dasharray="5,2" points="561,-176 561,-199 617,-199 617,-176 561,-176"/>
<text text-anchor="start" x="567" y="-186" font-family="Helvetica,sans-Serif" font-style="italic" text-decoration="underline" font-size="10.00">RecipeID</text>
</g>
<!-- MealPlans&#45;&gt;MealPlanEntries -->
<!-- MealPlanEntries&#45;&gt;Recipes -->
<g id="edge14" class="edge">
<title>MealPlanEntries:n&#45;&gt;Recipes:s</title>
<path fill="none" stroke="#333333" d="M589,-200C589,-200 865,-218 865,-218 865,-218 1599,-258 1599,-258 1599,-258 1599,-304 1599,-304 1599,-304 1388,-390 1388,-390 1388,-390 945,-430 945,-430 945,-430 813,-476 813,-476 813,-476 129.89,-513.95 47.17,-518.55"/>
<polygon fill="#333333" stroke="#333333" points="46.83,-515.76 39,-519 47.14,-521.35 46.83,-515.76"/>
</g>
<!-- MealPlanEntries&#45;&gt;MealPlans -->
<g id="edge13" class="edge">
<title>MealPlanEntries:n&#45;&gt;MealPlans:s</title>
<path fill="none" stroke="#333333" d="M527,-200C527,-200 356.38,-247.96 317.72,-258.83"/>
<polygon fill="#333333" stroke="#333333" points="316.94,-256.14 310,-261 318.46,-261.53 316.94,-256.14"/>
</g>
<!-- Products&#45;&gt;CreatorProfiles -->
<g id="edge15" class="edge">
<title>Products:n&#45;&gt;CreatorProfiles:s</title>
<path fill="none" stroke="#333333" d="M1541,-286C1541,-286 1561,-430 1561,-430 1561,-430 1561,-476 1561,-476 1561,-476 1489,-562 1489,-562 1489,-562 1233.04,-597.16 1184.05,-603.89"/>
<polygon fill="#333333" stroke="#333333" points="1183.54,-601.14 1176,-605 1184.31,-606.69 1183.54,-601.14"/>
</g>
<!-- ProductRecipes -->
<g id="node14" class="node">
<title>ProductRecipes</title>
<text text-anchor="start" x="897" y="-205" font-family="Helvetica,sans-Serif" font-weight="bold" font-size="10.00">ProductRecipes</text>
<polygon fill="none" stroke="black" stroke-dasharray="5,2" points="895,-176 895,-199 963,-199 963,-176 895,-176"/>
<text text-anchor="start" x="901" y="-186" font-family="Helvetica,sans-Serif" font-weight="bold" font-style="italic" text-decoration="underline" font-size="10.00">ProductID</text>
<polygon fill="none" stroke="black" stroke-dasharray="5,2" points="963,-176 963,-199 1026,-199 1026,-176 963,-176"/>
<text text-anchor="start" x="969" y="-186" font-family="Helvetica,sans-Serif" font-weight="bold" font-style="italic" text-decoration="underline" font-size="10.00">RecipeID</text>
<polygon fill="none" stroke="black" points="1026,-176 1026,-199 1085,-199 1085,-176 1026,-176"/>
<text text-anchor="start" x="1032" y="-185" font-family="Helvetica,sans-Serif" font-size="10.00">SortOrder</text>
<polygon fill="none" stroke="black" points="1085,-176 1085,-199 1146,-199 1146,-176 1085,-176"/>
<text text-anchor="start" x="1091" y="-185" font-family="Helvetica,sans-Serif" font-size="10.00">DayOffset</text>
<polygon fill="none" stroke="black" points="1146,-176 1146,-199 1177,-199 1177,-176 1146,-176"/>
<text text-anchor="start" x="1152" y="-185" font-family="Helvetica,sans-Serif" font-size="10.00">Slot</text>
</g>
<!-- Products&#45;&gt;ProductRecipes -->
<!-- CartItems -->
<g id="node15" class="node">
<title>CartItems</title>
<text text-anchor="start" x="1239" y="-205" font-family="Helvetica,sans-Serif" font-weight="bold" font-size="10.00">CartItems</text>
<polygon fill="none" stroke="black" stroke-dasharray="5,2" points="1237,-176 1237,-199 1288,-199 1288,-176 1237,-176"/>
<text text-anchor="start" x="1243" y="-186" font-family="Helvetica,sans-Serif" font-weight="bold" font-style="italic" text-decoration="underline" font-size="10.00">UserID</text>
<polygon fill="none" stroke="black" stroke-dasharray="5,2" points="1288,-176 1288,-199 1356,-199 1356,-176 1288,-176"/>
<text text-anchor="start" x="1294" y="-186" font-family="Helvetica,sans-Serif" font-weight="bold" font-style="italic" text-decoration="underline" font-size="10.00">ProductID</text>
<polygon fill="none" stroke="black" points="1356,-176 1356,-199 1410,-199 1410,-176 1356,-176"/>
<text text-anchor="start" x="1362" y="-185" font-family="Helvetica,sans-Serif" font-size="10.00">AddedAt</text>
</g>
<!-- Products&#45;&gt;CartItems -->
<!-- ProductRecipes&#45;&gt;Recipes -->
<g id="edge17" class="edge">
<title>ProductRecipes:n&#45;&gt;Recipes:s</title>
<path fill="none" stroke="#333333" d="M994,-200C994,-200 1631,-258 1631,-258 1631,-258 1631,-304 1631,-304 1631,-304 1477,-390 1477,-390 1477,-390 1020,-430 1020,-430 1020,-430 911,-476 911,-476 911,-476 134.98,-514.27 47.08,-518.6"/>
<polygon fill="#333333" stroke="#333333" points="46.85,-515.81 39,-519 47.13,-521.4 46.85,-515.81"/>
</g>
<!-- ProductRecipes&#45;&gt;Products -->
<g id="edge16" class="edge">
<title>ProductRecipes:n&#45;&gt;Products:s</title>
<path fill="none" stroke="#333333" d="M929,-200C929,-200 987.98,-241.83 1008.25,-256.21"/>
<polygon fill="#333333" stroke="#333333" points="1006.85,-258.66 1015,-261 1010.09,-254.09 1006.85,-258.66"/>
</g>
<!-- Orders -->
<g id="node16" class="node">
<title>Orders</title>
<text text-anchor="start" x="803" y="-119" font-family="Helvetica,sans-Serif" font-weight="bold" font-size="10.00">Orders</text>
<polygon fill="none" stroke="black" points="801,-90 801,-113 859,-113 859,-90 801,-90"/>
<text text-anchor="start" x="807" y="-100" font-family="Helvetica,sans-Serif" font-weight="bold" text-decoration="underline" font-size="10.00">OrderID</text>
<polygon fill="none" stroke="black" points="859,-90 859,-113 902,-113 902,-90 859,-90"/>
<text text-anchor="start" x="865" y="-99" font-family="Helvetica,sans-Serif" font-size="10.00">Status</text>
<polygon fill="none" stroke="black" points="902,-90 902,-113 957,-113 957,-90 902,-90"/>
<text text-anchor="start" x="908" y="-99" font-family="Helvetica,sans-Serif" font-size="10.00">PlacedAt</text>
<polygon fill="none" stroke="black" points="957,-90 957,-113 1000,-113 1000,-90 957,-90"/>
<text text-anchor="start" x="963" y="-99" font-family="Helvetica,sans-Serif" font-size="10.00">PaidAt</text>
<polygon fill="none" stroke="black" points="1000,-90 1000,-113 1064,-113 1064,-90 1000,-90"/>
<text text-anchor="start" x="1006" y="-99" font-family="Helvetica,sans-Serif" font-size="10.00">TotalCents</text>
<polygon fill="none" stroke="black" points="1064,-90 1064,-113 1120,-113 1120,-90 1064,-90"/>
<text text-anchor="start" x="1070" y="-99" font-family="Helvetica,sans-Serif" font-size="10.00">Currency</text>
<polygon fill="none" stroke="black" points="1120,-90 1120,-113 1225,-113 1225,-90 1120,-90"/>
<text text-anchor="start" x="1126" y="-99" font-family="Helvetica,sans-Serif" font-size="10.00">PaymentReference</text>
<polygon fill="none" stroke="black" stroke-dasharray="5,2" points="1225,-90 1225,-113 1271,-113 1271,-90 1225,-90"/>
<text text-anchor="start" x="1231" y="-100" font-family="Helvetica,sans-Serif" font-style="italic" text-decoration="underline" font-size="10.00">UserID</text>
</g>
<!-- ProductRecipes&#45;&gt;Orders -->
<!-- CartItems&#45;&gt;Users -->
<g id="edge18" class="edge">
<title>CartItems:n&#45;&gt;Users:s</title>
<path fill="none" stroke="#333333" d="M1262,-200C1262,-200 1663,-258 1663,-258 1663,-258 1663,-304 1663,-304 1663,-304 1625,-476 1625,-476 1625,-476 1589,-562 1589,-562 1589,-562 1528,-648 1528,-648 1528,-648 409.27,-686.98 302.21,-690.71"/>
<polygon fill="#333333" stroke="#333333" points="301.9,-687.92 294,-691 302.09,-693.52 301.9,-687.92"/>
</g>
<!-- CartItems&#45;&gt;Products -->
<g id="edge19" class="edge">
<title>CartItems:n&#45;&gt;Products:s</title>
<path fill="none" stroke="#333333" d="M1322,-200C1322,-200 1070.95,-249.88 1022.9,-259.43"/>
<polygon fill="#333333" stroke="#333333" points="1022.3,-256.69 1015,-261 1023.39,-262.19 1022.3,-256.69"/>
</g>
<!-- Orders&#45;&gt;Users -->
<g id="edge20" class="edge">
<title>Orders:n&#45;&gt;Users:s</title>
<path fill="none" stroke="#333333" d="M1248,-114C1248,-114 1439,-172 1439,-172 1439,-172 1695,-258 1695,-258 1695,-258 1695,-304 1695,-304 1695,-304 1682,-390 1682,-390 1682,-390 1663,-476 1663,-476 1663,-476 1631,-562 1631,-562 1631,-562 1577,-648 1577,-648 1577,-648 411.46,-687.06 302.19,-690.73"/>
<polygon fill="#333333" stroke="#333333" points="301.9,-687.93 294,-691 302.09,-693.53 301.9,-687.93"/>
</g>
<!-- OrderItems -->
<g id="node17" class="node">
<title>OrderItems</title>
<text text-anchor="start" x="834" y="-33" font-family="Helvetica,sans-Serif" font-weight="bold" font-size="10.00">OrderItems</text>
<polygon fill="none" stroke="black" points="832,-4 832,-27 915,-27 915,-4 832,-4"/>
<text text-anchor="start" x="838" y="-14" font-family="Helvetica,sans-Serif" font-weight="bold" text-decoration="underline" font-size="10.00">OrderItemID</text>
<polygon fill="none" stroke="black" points="915,-4 915,-27 986,-27 986,-4 915,-4"/>
<text text-anchor="start" x="921" y="-13" font-family="Helvetica,sans-Serif" font-size="10.00">ProductTitle</text>
<polygon fill="none" stroke="black" points="986,-4 986,-27 1071,-27 1071,-4 986,-4"/>
<text text-anchor="start" x="992" y="-13" font-family="Helvetica,sans-Serif" font-size="10.00">UnitPriceCents</text>
<polygon fill="none" stroke="black" points="1071,-4 1071,-27 1130,-27 1130,-4 1071,-4"/>
<text text-anchor="start" x="1077" y="-13" font-family="Helvetica,sans-Serif" font-size="10.00">CreatorID</text>
<polygon fill="none" stroke="black" stroke-dasharray="5,2" points="1130,-4 1130,-27 1180,-27 1180,-4 1130,-4"/>
<text text-anchor="start" x="1136" y="-14" font-family="Helvetica,sans-Serif" font-style="italic" text-decoration="underline" font-size="10.00">OrderID</text>
<polygon fill="none" stroke="black" stroke-dasharray="5,2" points="1180,-4 1180,-27 1240,-27 1240,-4 1180,-4"/>
<text text-anchor="start" x="1186" y="-14" font-family="Helvetica,sans-Serif" font-style="italic" text-decoration="underline" font-size="10.00">ProductID</text>
</g>
<!-- Orders&#45;&gt;OrderItems -->
<!-- OrderItems&#45;&gt;Products -->
<g id="edge22" class="edge">
<title>OrderItems:n&#45;&gt;Products:s</title>
<path fill="none" stroke="#333333" d="M1210,-28C1210,-28 1439,-172 1439,-172 1439,-172 1439,-218 1439,-218 1439,-218 1081.71,-254.23 1023.09,-260.18"/>
<polygon fill="#333333" stroke="#333333" points="1022.68,-257.41 1015,-261 1023.24,-262.98 1022.68,-257.41"/>
</g>
<!-- OrderItems&#45;&gt;Orders -->
<g id="edge21" class="edge">
<title>OrderItems:n&#45;&gt;Orders:s</title>
<path fill="none" stroke="#333333" d="M1155,-28C1155,-28 888.08,-78.1 838.03,-87.49"/>
<polygon fill="#333333" stroke="#333333" points="837.35,-84.77 830,-89 838.38,-90.28 837.35,-84.77"/>
</g>
</g>
</svg>
